<?xml version="1.0" encoding="UTF-8"?>
<svg xmlns="http://www.w3.org/2000/svg" version="1.1" xmlns:xlink="http://www.w3.org/1999/xlink" viewBox="0 0 180 55">
  <defs>
    <style>
      .cls-1 {
        fill: url(#linear-gradient-15);
      }

      .cls-2 {
        fill: url(#linear-gradient-13);
      }

      .cls-3 {
        fill: url(#linear-gradient-28);
      }

      .cls-4 {
        fill: url(#linear-gradient-2);
      }

      .cls-5 {
        fill: url(#linear-gradient-25);
      }

      .cls-6 {
        fill: url(#linear-gradient-10);
      }

      .cls-7 {
        fill: url(#linear-gradient-12);
      }

      .cls-8 {
        fill: url(#linear-gradient-27);
      }

      .cls-9 {
        fill: #fff;
      }

      .cls-10 {
        fill: url(#linear-gradient-26);
      }

      .cls-11 {
        fill: #ffcb4e;
      }

      .cls-12 {
        fill: url(#linear-gradient-4);
      }

      .cls-13 {
        fill: url(#linear-gradient-3);
      }

      .cls-14 {
        fill: url(#linear-gradient-5);
      }

      .cls-15 {
        fill: url(#linear-gradient-22);
      }

      .cls-16 {
        fill: url(#linear-gradient-24);
      }

      .cls-17 {
        fill: url(#linear-gradient-8);
      }

      .cls-18 {
        fill: url(#linear-gradient-14);
      }

      .cls-19 {
        fill: url(#linear-gradient-20);
      }

      .cls-20 {
        fill: url(#linear-gradient-17);
      }

      .cls-21 {
        fill: url(#linear-gradient-7);
      }

      .cls-22 {
        fill: url(#linear-gradient-9);
      }

      .cls-23 {
        fill: url(#linear-gradient-11);
      }

      .cls-24 {
        fill: url(#linear-gradient-19);
      }

      .cls-25 {
        fill: url(#linear-gradient-6);
      }

      .cls-26 {
        fill: url(#linear-gradient-21);
      }

      .cls-27 {
        fill: #00233a;
      }

      .cls-28 {
        fill: url(#linear-gradient-16);
      }

      .cls-29 {
        fill: url(#linear-gradient);
      }

      .cls-30 {
        fill: url(#linear-gradient-23);
      }

      .cls-31 {
        fill: url(#linear-gradient-18);
      }
    </style>
    <linearGradient id="linear-gradient" x1="68.49" y1="7.45" x2="-79.66" y2="72.77" gradientUnits="userSpaceOnUse">
      <stop offset="0" stop-color="#ddb96b"/>
      <stop offset=".06" stop-color="#8f5a24"/>
      <stop offset=".18" stop-color="#d8a049"/>
      <stop offset=".28" stop-color="#8f5a24"/>
      <stop offset=".33" stop-color="#fcf6b2"/>
      <stop offset=".52" stop-color="#c99240"/>
      <stop offset=".63" stop-color="#8f5a24"/>
      <stop offset=".73" stop-color="#fcf6b2"/>
      <stop offset=".94" stop-color="#ab732a"/>
      <stop offset="1" stop-color="#fcf6b2"/>
    </linearGradient>
    <linearGradient id="linear-gradient-2" x1="67.47" y1="5.13" x2="-80.68" y2="70.44" xlink:href="#linear-gradient"/>
    <linearGradient id="linear-gradient-3" x1="71.02" y1="13.19" x2="-77.13" y2="78.51" xlink:href="#linear-gradient"/>
    <linearGradient id="linear-gradient-4" x1="66.99" y1="4.05" x2="-81.16" y2="69.36" xlink:href="#linear-gradient"/>
    <linearGradient id="linear-gradient-5" x1="68.77" y1="8.09" x2="-79.38" y2="73.4" xlink:href="#linear-gradient"/>
    <linearGradient id="linear-gradient-6" x1="78.82" y1="30.9" x2="-69.33" y2="96.21" xlink:href="#linear-gradient"/>
    <linearGradient id="linear-gradient-7" x1="79.86" y1="33.24" x2="-68.29" y2="98.55" xlink:href="#linear-gradient"/>
    <linearGradient id="linear-gradient-8" x1="81.21" y1="36.31" x2="-66.94" y2="101.62" xlink:href="#linear-gradient"/>
    <linearGradient id="linear-gradient-9" x1="82.13" y1="38.39" x2="-66.02" y2="103.7" xlink:href="#linear-gradient"/>
    <linearGradient id="linear-gradient-10" x1="83.14" y1="40.7" x2="-65.01" y2="106.01" xlink:href="#linear-gradient"/>
    <linearGradient id="linear-gradient-11" x1="84.07" y1="42.79" x2="-64.08" y2="108.1" xlink:href="#linear-gradient"/>
    <linearGradient id="linear-gradient-12" x1="84.93" y1="44.75" x2="-63.22" y2="110.06" xlink:href="#linear-gradient"/>
    <linearGradient id="linear-gradient-13" x1="85.83" y1="46.79" x2="-62.32" y2="112.1" xlink:href="#linear-gradient"/>
    <linearGradient id="linear-gradient-14" x1="86.57" y1="48.47" x2="-61.58" y2="113.78" xlink:href="#linear-gradient"/>
    <linearGradient id="linear-gradient-15" x1="87.64" y1="50.91" x2="-60.51" y2="116.22" xlink:href="#linear-gradient"/>
    <linearGradient id="linear-gradient-16" x1="88.55" y1="52.95" x2="-59.6" y2="118.26" xlink:href="#linear-gradient"/>
    <linearGradient id="linear-gradient-17" x1="89.22" y1="54.48" x2="-58.93" y2="119.79" xlink:href="#linear-gradient"/>
    <linearGradient id="linear-gradient-18" x1="89.91" y1="56.06" x2="-58.24" y2="121.37" xlink:href="#linear-gradient"/>
    <linearGradient id="linear-gradient-19" x1="91.12" y1="58.8" x2="-57.03" y2="124.11" xlink:href="#linear-gradient"/>
    <linearGradient id="linear-gradient-20" x1="92.05" y1="60.89" x2="-56.1" y2="126.2" xlink:href="#linear-gradient"/>
    <linearGradient id="linear-gradient-21" x1="93.12" y1="63.32" x2="-55.03" y2="128.63" xlink:href="#linear-gradient"/>
    <linearGradient id="linear-gradient-22" x1="93.85" y1="64.99" x2="-54.3" y2="130.3" xlink:href="#linear-gradient"/>
    <linearGradient id="linear-gradient-23" x1="94.52" y1="66.5" x2="-53.63" y2="131.81" xlink:href="#linear-gradient"/>
    <linearGradient id="linear-gradient-24" x1="95.17" y1="67.98" x2="-52.98" y2="133.29" xlink:href="#linear-gradient"/>
    <linearGradient id="linear-gradient-25" x1="95.87" y1="69.55" x2="-52.28" y2="134.86" xlink:href="#linear-gradient"/>
    <linearGradient id="linear-gradient-26" x1="96.77" y1="71.61" x2="-51.38" y2="136.92" xlink:href="#linear-gradient"/>
    <linearGradient id="linear-gradient-27" x1="97.76" y1="73.86" x2="-50.39" y2="139.17" xlink:href="#linear-gradient"/>
    <linearGradient id="linear-gradient-28" x1="98.71" y1="76.01" x2="-49.44" y2="141.32" xlink:href="#linear-gradient"/>
  </defs>
  <!-- Generator: Adobe Illustrator 28.6.0, SVG Export Plug-In . SVG Version: 1.2.0 Build 709)  -->
  <g>
    <g id="Calque_1">
      <g id="LOGO">
        <g>
          <path class="cls-9" d="M53.2,13.9h8.63c2.2,0,3.93.6,5.03,1.7.85.85,1.29,1.9,1.29,3.19v.05c0,2.31-1.32,3.54-2.75,4.29,2.25.77,3.82,2.06,3.82,4.67v.05c0,3.43-2.83,5.28-7.12,5.28h-8.9V13.9ZM61.14,22.01c2.17,0,3.63-.85,3.63-2.61v-.05c0-1.51-1.21-2.45-3.38-2.45h-4.86v5.11h4.62ZM62.13,30.14c2.31,0,3.71-.91,3.71-2.64v-.05c0-1.62-1.29-2.58-3.96-2.58h-5.36v5.28h5.61Z"/>
          <path class="cls-9" d="M73.04,13.9h3.38v9.67l9.15-9.67h4.15l-8,8.27,8.35,10.96h-4.09l-6.57-8.66-2.99,3.08v5.58h-3.38V13.9Z"/>
          <path class="cls-9" d="M99.19,13.9h13.55v1.32h-12.12v7.89h10.88v1.32h-10.88v8.71h-1.43V13.9Z"/>
          <path class="cls-9" d="M115.82,23.57v-.05c0-5.25,3.87-9.95,9.7-9.95s9.64,4.64,9.64,9.89v.05c0,5.25-3.87,9.95-9.7,9.95s-9.64-4.64-9.64-9.89ZM133.68,23.57v-.05c0-4.75-3.46-8.66-8.22-8.66s-8.16,3.85-8.16,8.6v.05c0,4.75,3.46,8.66,8.22,8.66s8.16-3.85,8.16-8.6Z"/>
          <path class="cls-9" d="M139.17,23.57v-.05c0-5.25,3.87-9.95,9.7-9.95s9.64,4.64,9.64,9.89v.05c0,5.25-3.87,9.95-9.7,9.95s-9.64-4.64-9.64-9.89ZM157.03,23.57v-.05c0-4.75-3.46-8.66-8.22-8.66s-8.16,3.85-8.16,8.6v.05c0,4.75,3.46,8.66,8.22,8.66s8.16-3.85,8.16-8.6Z"/>
          <path class="cls-9" d="M163.38,13.9h6.4c6.04,0,10.22,4.15,10.22,9.56v.05c0,5.41-4.18,9.62-10.22,9.62h-6.4V13.9ZM169.78,31.82c5.36,0,8.74-3.65,8.74-8.24v-.05c0-4.56-3.38-8.3-8.74-8.3h-4.97v16.6h4.97Z"/>
        </g>
        <g>
          <circle class="cls-27" cx="23.02" cy="27.5" r="22.53"/>
          <path class="cls-29" d="M23.02,50.52C10.33,50.52,0,40.19,0,27.5S10.33,4.48,23.02,4.48s23.02,10.33,23.02,23.02-10.33,23.02-23.02,23.02ZM23.02,5.45C10.86,5.45.97,15.34.97,27.5s9.89,22.05,22.05,22.05,22.05-9.89,22.05-22.05S35.18,5.45,23.02,5.45Z"/>
          <g>
            <g>
              <path class="cls-4" d="M17.99,18.99c0,.35-.28.63-.63.63-4.56,0-8.52,6.42-9.36,7.88.84,1.46,4.8,7.88,9.36,7.88.35,0,.63.28.63.63,0,.35-.28.63-.63.63-2.5,0-5.06-1.5-7.6-4.47-1.85-2.15-2.98-4.28-3.03-4.37l-.16-.29.16-.29c.05-.09,1.18-2.21,3.03-4.37,2.54-2.97,5.1-4.47,7.6-4.47.35,0,.63.28.63.63Z"/>
              <path class="cls-13" d="M39.46,33.48h-.87c-3.84,0-6.77-5.46-6.9-5.69l-.16-.29.16-.29c.12-.23,3.06-5.69,6.9-5.69h.86s-1.96,6.04-1.96,6.04l1.97,5.92ZM36.18,27.57l1.51-4.66c-1.22.37-2.32,1.41-3.09,2.3-.78.91-1.36,1.83-1.63,2.29.27.46.85,1.38,1.63,2.29.77.89,1.87,1.93,3.08,2.3l-1.5-4.52Z"/>
              <circle class="cls-12" cx="13.8" cy="27.5" r="1.23"/>
              <path class="cls-14" d="M27.48,23.31c0,.84-.38,1.6-.99,2.1.6.5.99,1.25.99,2.1,0,.84-.38,1.6-.99,2.1.6.5.99,1.25.99,2.1,0,1.5-1.22,2.73-2.73,2.73h-.63v-.63c0-.35.28-.63.63-.63.02,0,.04,0,.06,0,.79-.03,1.42-.68,1.42-1.47,0-.77-.6-1.41-1.36-1.47-.04,0-.08,0-.12,0h-.63v-1.25h.63s.08,0,.12,0c.76-.06,1.36-.7,1.36-1.47,0-.77-.6-1.41-1.36-1.47-.04,0-.08,0-.12,0h-.63v-1.25h.63s.08,0,.12,0c.76-.06,1.36-.7,1.36-1.47,0-.79-.63-1.44-1.42-1.47-.02,0-.04,0-.06,0-.35,0-.63-.28-.63-.62v-.63h.63c1.5,0,2.73,1.22,2.73,2.73Z"/>
            </g>
            <g>
              <path class="cls-11" d="M17.36,19.62c.35,0,.63-.28.63-.63s-.28-.63-.63-.63c-2.5,0-5.06,1.5-7.6,4.47-1.85,2.15-2.98,4.28-3.03,4.37l-.15.29h1.42c.84-1.46,4.8-7.88,9.36-7.88Z"/>
              <path class="cls-11" d="M34.6,25.21c.77-.9,1.87-1.93,3.09-2.3l-1.49,4.59h1.31l1.94-5.98h-.86c-3.84,0-6.77,5.46-6.9,5.69l-.15.29h1.43c.27-.46.85-1.38,1.63-2.29Z"/>
              <path class="cls-11" d="M13.8,26.27c-.68,0-1.23.55-1.23,1.23h2.47c0-.68-.55-1.23-1.23-1.23Z"/>
              <path class="cls-11" d="M26.5,25.4c.6-.5.99-1.25.99-2.1,0-1.5-1.22-2.73-2.73-2.73h-.63v.63c0,.35.28.62.63.62h.06c.79.03,1.42.68,1.42,1.47s-.6,1.41-1.36,1.47c-.04,0-.08,0-.12,0h-.63v1.26h.63s.08,0,.12,0c.76.06,1.35.7,1.36,1.47h1.25c0-.84-.38-1.6-.99-2.1Z"/>
            </g>
          </g>
        </g>
        <g>
          <path class="cls-25" d="M53.19,39.36h.49v3.91h2.46v.46h-2.95v-4.37Z"/>
          <path class="cls-21" d="M59.82,39.33h.46l1.99,4.4h-.53l-.51-1.15h-2.38l-.52,1.15h-.51l1.99-4.4ZM61.04,42.13l-.99-2.23-1,2.23h1.99Z"/>
          <path class="cls-17" d="M67.11,41.56h0c0-1.25.92-2.27,2.21-2.27.79,0,1.27.28,1.7.69l-.34.36c-.37-.35-.78-.6-1.37-.6-.97,0-1.69.79-1.69,1.79h0c0,1.02.73,1.82,1.69,1.82.6,0,.99-.23,1.41-.63l.32.32c-.46.46-.95.77-1.75.77-1.26,0-2.19-.99-2.19-2.25Z"/>
          <path class="cls-22" d="M72.73,41.56h0c0-1.22.9-2.27,2.23-2.27s2.22,1.04,2.22,2.25h0c0,1.22-.9,2.27-2.23,2.27s-2.22-1.04-2.22-2.25ZM76.68,41.56h0c0-1-.72-1.82-1.72-1.82s-1.71.8-1.71,1.79h0c0,1,.72,1.82,1.72,1.82s1.71-.8,1.71-1.79Z"/>
          <path class="cls-6" d="M79.38,39.36h.46l2.75,3.5v-3.5h.48v4.37h-.39l-2.82-3.58v3.58h-.48v-4.37Z"/>
          <path class="cls-23" d="M85.17,43.09l.31-.36c.46.41.89.62,1.5.62s.97-.31.97-.74h0c0-.42-.22-.65-1.14-.84-1-.22-1.47-.54-1.47-1.26h0c0-.7.61-1.2,1.44-1.2.64,0,1.09.18,1.54.54l-.29.38c-.41-.33-.81-.47-1.26-.47-.57,0-.93.31-.93.71h0c0,.42.22.66,1.19.86.97.21,1.42.57,1.42,1.24h0c0,.76-.62,1.25-1.49,1.25-.69,0-1.26-.23-1.78-.7Z"/>
          <path class="cls-7" d="M90.6,39.36h3.16v.45h-2.67v1.49h2.38v.45h-2.38v1.53h2.7v.45h-3.19v-4.37Z"/>
          <path class="cls-2" d="M95.92,39.36h1.88c.54,0,.97.16,1.24.44.21.21.34.52.34.86h0c0,.74-.5,1.16-1.19,1.29l1.34,1.78h-.61l-1.27-1.7h-1.25v1.7h-.49v-4.37ZM97.76,41.59c.66,0,1.12-.34,1.12-.9h0c0-.55-.41-.87-1.12-.87h-1.35v1.77h1.34Z"/>
          <path class="cls-18" d="M101.08,39.36h.55l1.55,3.76,1.56-3.76h.53l-1.88,4.4h-.44l-1.88-4.4Z"/>
          <path class="cls-1" d="M107.29,39.36h3.16v.45h-2.67v1.49h2.38v.45h-2.38v1.53h2.7v.45h-3.19v-4.37Z"/>
          <path class="cls-28" d="M112.61,39.36h1.88c.54,0,.97.16,1.24.44.21.21.34.52.34.86h0c0,.74-.5,1.16-1.19,1.29l1.34,1.78h-.61l-1.27-1.7h-1.25v1.7h-.49v-4.37ZM114.45,41.59c.66,0,1.12-.34,1.12-.9h0c0-.55-.41-.87-1.12-.87h-1.35v1.77h1.34Z"/>
          <path class="cls-20" d="M118.32,39.36h.49v4.37h-.49v-4.37Z"/>
          <path class="cls-31" d="M121.24,39.36h3.16v.45h-2.67v1.49h2.38v.45h-2.38v1.53h2.7v.45h-3.19v-4.37Z"/>
          <path class="cls-24" d="M130.74,39.82h-1.47v-.46h3.43v.46h-1.47v3.91h-.5v-3.91Z"/>
          <path class="cls-19" d="M134.71,41.9v-2.54h.49v2.51c0,.94.5,1.47,1.34,1.47s1.32-.49,1.32-1.44v-2.54h.49v2.5c0,1.27-.73,1.93-1.82,1.93s-1.82-.66-1.82-1.9Z"/>
          <path class="cls-26" d="M140.66,39.36h.46l2.75,3.5v-3.5h.48v4.37h-.39l-2.82-3.58v3.58h-.48v-4.37Z"/>
          <path class="cls-15" d="M146.78,39.36h.49v4.37h-.49v-4.37Z"/>
          <path class="cls-30" d="M149.41,43.09l.31-.36c.46.41.89.62,1.5.62s.97-.31.97-.74h0c0-.42-.22-.65-1.14-.84-1-.22-1.47-.54-1.47-1.26h0c0-.7.61-1.2,1.44-1.2.64,0,1.09.18,1.54.54l-.29.38c-.41-.33-.81-.47-1.26-.47-.57,0-.93.31-.93.71h0c0,.42.22.66,1.19.86.97.21,1.42.57,1.42,1.24h0c0,.76-.62,1.25-1.49,1.25-.69,0-1.26-.23-1.78-.7Z"/>
          <path class="cls-16" d="M154.89,39.36h.49v4.37h-.49v-4.37Z"/>
          <path class="cls-5" d="M157.8,39.36h3.16v.45h-2.67v1.49h2.38v.45h-2.38v1.53h2.7v.45h-3.19v-4.37Z"/>
          <path class="cls-10" d="M163.13,39.36h.46l2.75,3.5v-3.5h.48v4.37h-.39l-2.82-3.58v3.58h-.48v-4.37Z"/>
          <path class="cls-8" d="M169.21,39.36h.46l2.75,3.5v-3.5h.48v4.37h-.39l-2.82-3.58v3.58h-.48v-4.37Z"/>
          <path class="cls-3" d="M175.29,39.36h3.16v.45h-2.67v1.49h2.38v.45h-2.38v1.53h2.7v.45h-3.19v-4.37Z"/>
        </g>
      </g>
    </g>
  </g>
</svg>